# xmcd
#
# Track frame offsets: 
#        150
#        13650
#        28875
#        46462
#        60032
#        82227
#        98220
#        116542
#        131575
#        145450
#
# Disc length: 2171 seconds
#
# Revision: 1
# Processed by: cddbd v1.4PL0 Copyright (c) Steve Scherf et al.
# Submitted via: ExactAudioCopy v0.90b4
#
DISCID=8708790a
DTITLE=Sylvia - One Step Closer
DYEAR=1900
DGENRE=Country
TTITLE0=Fallin' In Love
TTITLE1=One Step Closer
TTITLE2=Breakin' It
TTITLE3=Cry Just A Little Bit
TTITLE4=I Can't Help The Way That I Don't Feel
TTITLE5=Read All About It
TTITLE6=Only The Shadows Know
TTITLE7=I Love You By Heart
TTITLE8=True Blue
TTITLE9=Eyes Like Mine
EXTD=
EXTT0=
EXTT1=
EXTT2=
EXTT3=
EXTT4=
EXTT5=
EXTT6=
EXTT7=
EXTT8=
EXTT9=
PLAYORDER=
